# Blender v2.77 (sub 0) OBJ File: ''
# www.blender.org
mtllib Grass_LOD2.mtl
o Plane.001
v -0.297736 -0.052970 -0.000000
v 0.297736 -0.052970 -0.000000
v 0.297736 0.542502 0.000000
v -0.297736 0.542502 0.000000
v 0.000000 -0.052970 0.297736
v 0.000000 -0.052970 -0.297736
v 0.000000 0.542502 -0.297736
v 0.000000 0.542502 0.297736
vt 0.000000 0.000000
vt 1.000000 0.000000
vt 1.000000 1.000000
vt 0.000000 1.000000
vt 0.000000 0.000000
vt 1.000000 0.000000
vt 1.000000 1.000000
vt 0.000000 1.000000
vn 0.000000 -0.000000 1.000000
vn 1.000000 0.000000 0.000000
usemtl None
s 1
f 1/1/1 2/2/1 3/3/1 4/4/1
f 5/5/2 6/6/2 7/7/2 8/8/2
