# Blender v2.77 (sub 0) OBJ File: 'WoodenDagger.blend'
# www.blender.org
mtllib WoodenDagger.mtl
o Cube.001_Cube.002
v 0.000000 1.764793 0.747365
v 0.000000 5.562369 0.747365
v 0.000000 1.764793 -0.747365
v 0.000000 5.562369 -0.747365
v -0.345354 4.960155 0.000000
v -0.345354 1.764793 0.000000
v 0.345354 4.960155 0.000000
v 0.345354 1.764793 0.000000
v 0.000000 6.715514 0.000000
vn 0.907800 0.000000 0.419500
vn -0.940400 0.185000 0.285500
vn -0.907800 0.000000 0.419500
vn 0.940400 0.185000 0.285500
vn 0.907800 0.000000 -0.419500
vn -0.940400 0.185000 -0.285500
vn -0.907800 0.000000 -0.419500
vn 0.940400 0.185000 -0.285500
vn 0.000000 0.000000 1.000000
usemtl None
s off
f 7//1 2//1 1//1 8//1
f 5//2 2//2 9//2
f 2//3 5//3 6//3 1//3
f 2//4 7//4 9//4
f 7//5 8//5 3//5 4//5
f 5//6 9//6 4//6
f 4//7 3//7 6//7 5//7
f 4//8 9//8 7//8
f 7//9 9//9 5//9
o Cube_Cube.001
v -0.435731 0.963226 1.611182
v -0.484145 0.963226 1.450064
v -0.435731 0.918677 1.450064
v -0.435731 1.765112 1.611182
v -0.435731 1.809661 1.450064
v -0.484145 1.765112 1.450064
v -0.435731 0.963226 -1.611182
v -0.435731 0.918677 -1.450064
v -0.484145 0.963226 -1.450064
v -0.435731 1.809661 -1.450064
v -0.435731 1.765112 -1.611182
v -0.484145 1.765112 -1.450064
v 0.435731 0.963226 1.611182
v 0.435731 0.918677 1.450064
v 0.484145 0.963226 1.450064
v 0.435731 1.809661 1.450064
v 0.435731 1.765112 1.611182
v 0.484145 1.765112 1.450064
v 0.484145 0.963226 -1.450064
v 0.435731 0.918677 -1.450064
v 0.435731 0.963226 -1.611182
v 0.435731 1.809661 -1.450064
v 0.484145 1.765112 -1.450064
v 0.435731 1.765112 -1.611182
vn 0.000000 -1.000000 0.000000
vn 1.000000 0.000000 0.000000
vn 0.000000 1.000000 0.000000
vn 0.000000 0.000000 1.000000
vn 0.000000 0.000000 -1.000000
vn -0.663500 -0.721100 0.199400
vn -0.663500 0.721100 0.199400
vn -0.663500 -0.721100 -0.199400
vn -0.663500 0.721100 -0.199400
vn 0.663500 -0.721100 0.199400
vn 0.663500 0.721100 0.199400
vn 0.663500 -0.721100 -0.199400
vn 0.663500 0.721100 -0.199400
vn -0.957700 0.000000 0.287800
vn -0.677100 0.735900 0.000000
vn -0.957700 0.000000 -0.287800
vn -0.677100 -0.735900 0.000000
vn 0.000000 0.963800 -0.266500
vn 0.957700 0.000000 -0.287800
vn 0.000000 -0.963800 -0.266500
vn 0.677100 0.735900 0.000000
vn 0.957700 0.000000 0.287800
vn 0.677100 -0.735900 0.000000
vn 0.000000 0.963800 0.266500
vn 0.000000 -0.963800 0.266500
vn -1.000000 0.000000 0.000000
usemtl None
s off
f 12//10 17//10 29//10 23//10
f 32//11 27//11 24//11 28//11
f 25//12 31//12 19//12 14//12
f 26//13 13//13 10//13 22//13
f 20//14 33//14 30//14 16//14
f 10//15 11//15 12//15
f 13//16 14//16 15//16
f 16//17 17//17 18//17
f 19//18 20//18 21//18
f 22//19 23//19 24//19
f 25//20 26//20 27//20
f 28//21 29//21 30//21
f 31//22 32//22 33//22
f 10//23 13//23 15//23 11//23
f 14//24 19//24 21//24 15//24
f 20//25 16//25 18//25 21//25
f 17//26 12//26 11//26 18//26
f 19//27 31//27 33//27 20//27
f 32//28 28//28 30//28 33//28
f 29//29 17//29 16//29 30//29
f 31//30 25//30 27//30 32//30
f 26//31 22//31 24//31 27//31
f 23//32 29//32 28//32 24//32
f 25//33 14//33 13//33 26//33
f 12//34 23//34 22//34 10//34
f 15//35 21//35 18//35 11//35
o Cylinder
v 0.000000 -1.245304 -0.416073
v 0.000000 1.245304 -0.416073
v 0.081172 -1.245304 -0.408078
v 0.081172 1.245304 -0.408078
v 0.159224 -1.245304 -0.384401
v 0.159224 1.245304 -0.384401
v 0.231158 -1.245304 -0.345952
v 0.231158 1.245304 -0.345952
v 0.294208 -1.245304 -0.294208
v 0.294208 1.245304 -0.294208
v 0.345952 -1.245304 -0.231157
v 0.345952 1.245304 -0.231157
v 0.384401 -1.245304 -0.159224
v 0.384401 1.245304 -0.159224
v 0.408078 -1.245304 -0.081172
v 0.408078 1.245304 -0.081172
v 0.416073 -1.245304 -0.000000
v 0.416073 1.245304 -0.000000
v 0.408078 -1.245304 0.081172
v 0.408078 1.245304 0.081172
v 0.384401 -1.245304 0.159224
v 0.384401 1.245304 0.159224
v 0.345952 -1.245304 0.231157
v 0.345952 1.245304 0.231157
v 0.294208 -1.245304 0.294208
v 0.294208 1.245304 0.294208
v 0.231157 -1.245304 0.345952
v 0.231157 1.245304 0.345952
v 0.159224 -1.245304 0.384401
v 0.159224 1.245304 0.384401
v 0.081172 -1.245304 0.408078
v 0.081172 1.245304 0.408078
v -0.000000 -1.245304 0.416073
v -0.000000 1.245304 0.416073
v -0.081172 -1.245304 0.408078
v -0.081172 1.245304 0.408078
v -0.159224 -1.245304 0.384401
v -0.159224 1.245304 0.384401
v -0.231158 -1.245304 0.345952
v -0.231158 1.245304 0.345952
v -0.294208 -1.245304 0.294208
v -0.294208 1.245304 0.294208
v -0.345952 -1.245304 0.231157
v -0.345952 1.245304 0.231157
v -0.384401 -1.245304 0.159224
v -0.384401 1.245304 0.159224
v -0.408078 -1.245304 0.081171
v -0.408078 1.245304 0.081171
v -0.416073 -1.245304 -0.000000
v -0.416073 1.245304 -0.000000
v -0.408078 -1.245304 -0.081172
v -0.408078 1.245304 -0.081172
v -0.384401 -1.245304 -0.159224
v -0.384401 1.245304 -0.159224
v -0.345951 -1.245304 -0.231158
v -0.345951 1.245304 -0.231158
v -0.294207 -1.245304 -0.294208
v -0.294207 1.245304 -0.294208
v -0.231157 -1.245304 -0.345952
v -0.231157 1.245304 -0.345952
v -0.159224 -1.245304 -0.384401
v -0.159224 1.245304 -0.384401
v -0.081171 -1.245304 -0.408078
v -0.081171 1.245304 -0.408078
vn 0.098000 0.000000 -0.995200
vn 0.290300 0.000000 -0.956900
vn 0.471400 0.000000 -0.881900
vn 0.634400 0.000000 -0.773000
vn 0.773000 0.000000 -0.634400
vn 0.881900 0.000000 -0.471400
vn 0.956900 0.000000 -0.290300
vn 0.995200 0.000000 -0.098000
vn 0.995200 0.000000 0.098000
vn 0.956900 0.000000 0.290300
vn 0.881900 0.000000 0.471400
vn 0.773000 0.000000 0.634400
vn 0.634400 0.000000 0.773000
vn 0.471400 0.000000 0.881900
vn 0.290300 0.000000 0.956900
vn 0.098000 0.000000 0.995200
vn -0.098000 0.000000 0.995200
vn -0.290300 0.000000 0.956900
vn -0.471400 0.000000 0.881900
vn -0.634400 0.000000 0.773000
vn -0.773000 0.000000 0.634400
vn -0.881900 0.000000 0.471400
vn -0.956900 0.000000 0.290300
vn -0.995200 0.000000 0.098000
vn -0.995200 0.000000 -0.098000
vn -0.956900 0.000000 -0.290300
vn -0.881900 0.000000 -0.471400
vn -0.773000 0.000000 -0.634400
vn -0.634400 0.000000 -0.773000
vn -0.471400 0.000000 -0.881900
vn 0.000000 1.000000 -0.000000
vn -0.290300 0.000000 -0.956900
vn -0.098000 0.000000 -0.995200
vn 0.000000 -1.000000 -0.000000
usemtl None
s off
f 34//36 35//36 37//36 36//36
f 36//37 37//37 39//37 38//37
f 38//38 39//38 41//38 40//38
f 40//39 41//39 43//39 42//39
f 42//40 43//40 45//40 44//40
f 44//41 45//41 47//41 46//41
f 46//42 47//42 49//42 48//42
f 48//43 49//43 51//43 50//43
f 50//44 51//44 53//44 52//44
f 52//45 53//45 55//45 54//45
f 54//46 55//46 57//46 56//46
f 56//47 57//47 59//47 58//47
f 58//48 59//48 61//48 60//48
f 60//49 61//49 63//49 62//49
f 62//50 63//50 65//50 64//50
f 64//51 65//51 67//51 66//51
f 66//52 67//52 69//52 68//52
f 68//53 69//53 71//53 70//53
f 70//54 71//54 73//54 72//54
f 72//55 73//55 75//55 74//55
f 74//56 75//56 77//56 76//56
f 76//57 77//57 79//57 78//57
f 78//58 79//58 81//58 80//58
f 80//59 81//59 83//59 82//59
f 82//60 83//60 85//60 84//60
f 84//61 85//61 87//61 86//61
f 86//62 87//62 89//62 88//62
f 88//63 89//63 91//63 90//63
f 90//64 91//64 93//64 92//64
f 92//65 93//65 95//65 94//65
f 37//66 35//66 97//66 95//66 93//66 91//66 89//66 87//66 85//66 83//66 81//66 79//66 77//66 75//66 73//66 71//66 69//66 67//66 65//66 63//66 61//66 59//66 57//66 55//66 53//66 51//66 49//66 47//66 45//66 43//66 41//66 39//66
f 94//67 95//67 97//67 96//67
f 96//68 97//68 35//68 34//68
f 34//69 36//69 38//69 40//69 42//69 44//69 46//69 48//69 50//69 52//69 54//69 56//69 58//69 60//69 62//69 64//69 66//69 68//69 70//69 72//69 74//69 76//69 78//69 80//69 82//69 84//69 86//69 88//69 90//69 92//69 94//69 96//69
